# xmcd CD database file
#
# Track frame offsets:
#	150
#	15828
#	28419
#	49767
#	58942
#	76020
#	91635
#	108845
#	126493
#	145008
#	154195
#	162511
#	174208
#	184616
#	197532
#	213311
#	223829
#	238073
#	249124
#	264768
#
# Disc length: 3709 seconds
#
# Revision: 0
# Processed by: cddbd v1.5.2PL0 Copyright (c) Steve Scherf et al.
# Submitted via: CDex 1.51
#
DISCID=020e7b14
DTITLE=Ultimate Irish Collecton - A little bit Country
DYEAR=1900
DGENRE=Country
TTITLE0=If We're not back in love by monday RAY LYNAM
TTITLE1=Blues eyes cryin' in the rain LOUISE PORRISEY
TTITLE2=Mr Jones ROLY DANIELS
TTITLE3=Back in my baby arms again BIG TOM and MAINLINERS
TTITLE4=Old flames MARGO
TTITLE5=Four country Roads SEAN WILSON
TTITLE6=It' hard to be humble T R DALLAS
TTITLE7=Your wedding day ANN WILLIAMSON
TTITLE8=I'll take your home again Kathleen BRIAN COLL
TTITLE9=Truck drivin' woman PHILOMENA BEGLEY
TTITLE10=The blackboard of my heart MAISIE Mc DANIELS
TTITLE11=Lovely leitrim LARRY CUNNIGHAM
TTITLE12=Gone gone gone  MICK FLAVIN
TTITLE13=Ruby Don't take your love to town BRENDAN QUINN
TTITLE14=I will love you all my life ROLY DANIELS
TTITLE15=Bacjk home in Ireland PADDY O'BREN
TTITLE16=He stopped loving her today JIMMY BUCKLEY
TTITLE17=Burning bridge FRANCKIE Mc BRIDE
TTITLE18=My connemara marble ring ANN WILLIAMSON
TTITLE19=I can almost see my hometown from here BRENDAN QUINN
EXTD=
EXTT0=
EXTT1=
EXTT2=
EXTT3=
EXTT4=
EXTT5=
EXTT6=
EXTT7=
EXTT8=
EXTT9=
EXTT10=
EXTT11=
EXTT12=
EXTT13=
EXTT14=
EXTT15=
EXTT16=
EXTT17=
EXTT18=
EXTT19=
PLAYORDER=
